<svg width="379" height="543" viewBox="0 0 379 543" fill="none" xmlns="http://www.w3.org/2000/svg">
<path fill-rule="evenodd" clip-rule="evenodd" d="M55.5033 55.6644C91.0414 20.0231 139.241 0 189.5 0C239.759 0 287.959 20.0231 323.497 55.6644C359.035 91.3056 379 139.646 379 190.05C379 232.714 362.022 281.459 338.23 328.823L324.117 358.589C323.43 360.039 321.318 360.178 320.249 358.981C315.44 353.6 306.741 348.337 299.288 343.828L299.287 343.828C296.406 342.085 293.711 340.455 291.5 338.974C272.204 322.033 271.928 312.882 271.598 301.928C271.421 296.062 271.228 289.678 268.09 281.304C258.8 256.517 211 226.117 186.558 213.055C185.564 212.524 185.208 211.288 185.759 210.305L217.53 153.613C218.161 152.486 219.68 152.245 220.63 153.121L319.976 244.75C327.075 227.917 331 209.417 331 190C331 112.128 267.872 49 190 49C112.128 49 49 112.128 49 190C49 212.695 54.3619 234.138 63.8879 253.13L130.476 150.398C131.231 149.233 132.915 149.173 133.751 150.282L201.761 240.462C207.241 246.134 219.902 258.841 226.705 264.287C235.209 271.094 245.413 289.246 225.571 334.058C205.729 378.871 218.366 398 229 412C233.65 418.122 251.277 437.553 265.008 443.968C266.226 444.537 266.69 446.09 265.889 447.168L240 482L225.784 499.578C208.314 521.533 195.197 536.568 190.96 541.359C190.174 542.249 188.933 542.369 188.147 541.48C171.161 522.286 0 325.515 0 190.05C0 139.646 19.9651 91.3056 55.5033 55.6644Z" fill="#E6E6E6"/>
</svg>
